<?xml version="1.0" encoding="UTF-8"?>
<svg width="24px" height="24px" viewBox="0 0 24 24" version="1.1" xmlns="http://www.w3.org/2000/svg" xmlns:xlink="http://www.w3.org/1999/xlink">
    <title>Icon / Black / Settings</title>
    <g id="Icon-/-Black-/-Settings" stroke="none" stroke-width="1" fill="none" fill-rule="evenodd">
        <path d="M10,18.7101213 C9.45933324,18.549211 8.94604222,18.3247368 8.46879285,18.0453646 L8.30733125,18.2068262 C7.91680696,18.5973505 7.28364198,18.5973505 6.89311769,18.2068262 L5.79317381,17.1068823 C5.40264952,16.716358 5.40264952,16.083193 5.79317381,15.6926687 L5.95463541,15.5312071 C5.67526319,15.0539578 5.45078897,14.5406668 5.28987868,14 L5,14 C4.44771525,14 4,13.5522847 4,13 L4,11 C4,10.4477153 4.44771525,10 5,10 L5.28987868,10 C5.45078897,9.45933324 5.67526319,8.94604222 5.95463541,8.46879285 L5.79317381,8.30733125 C5.40264952,7.91680696 5.40264952,7.28364198 5.79317381,6.89311769 L6.89311769,5.79317381 C7.28364198,5.40264952 7.91680696,5.40264952 8.30733125,5.79317381 L8.46879285,5.95463541 C8.94604222,5.67526319 9.45933324,5.45078897 10,5.28987868 L10,5 C10,4.44771525 10.4477153,4 11,4 L13,4 C13.5522847,4 14,4.44771525 14,5 L14,5.28987868 C14.5406668,5.45078897 15.0539578,5.67526319 15.5312071,5.95463541 L15.6926687,5.79317381 C16.083193,5.40264952 16.716358,5.40264952 17.1068823,5.79317381 L18.2068262,6.89311769 C18.5973505,7.28364198 18.5973505,7.91680696 18.2068262,8.30733125 L18.0453646,8.46879285 C18.3247368,8.94604222 18.549211,9.45933324 18.7101213,10 L19,10 C19.5522847,10 20,10.4477153 20,11 L20,13 C20,13.5522847 19.5522847,14 19,14 L18.7101213,14 C18.549211,14.5406668 18.3247368,15.0539578 18.0453646,15.5312071 L18.2068262,15.6926687 C18.5973505,16.083193 18.5973505,16.716358 18.2068262,17.1068823 L17.1068823,18.2068262 C16.716358,18.5973505 16.083193,18.5973505 15.6926687,18.2068262 L15.5312071,18.0453646 C15.0539578,18.3247368 14.5406668,18.549211 14,18.7101213 L14,19 C14,19.5522847 13.5522847,20 13,20 L11,20 C10.4477153,20 10,19.5522847 10,19 L10,18.7101213 L10,18.7101213 Z" id="Path" stroke="#363837" stroke-linecap="round" stroke-linejoin="round"></path>
        <circle id="Oval" stroke="#363837" cx="12" cy="12" r="4"></circle>
    </g>
</svg>